<svg width="301" height="210" viewBox="0 0 301 210" fill="none" xmlns="http://www.w3.org/2000/svg">
<ellipse cx="150.5" cy="185.78" rx="42.6606" ry="6.88074" fill="#FFF4F4"/>
<path d="M82.5687 77.0642C82.5687 79.8282 80.3281 82.0688 77.5642 82.0688C74.8002 82.0688 72.5596 79.8282 72.5596 77.0642C72.5596 74.3003 74.8002 72.0596 77.5642 72.0596C80.3281 72.0596 82.5687 74.3003 82.5687 77.0642Z" stroke="#F3B7B6"/>
<path d="M74.812 59.1743H83.0689M78.9405 55.0458V63.3027" stroke="#F3B7B6"/>
<path d="M212.427 77.0642H223.436M217.931 71.5596V82.5688" stroke="#F3B7B6" stroke-width="1.5"/>
<path d="M199.874 51.0844L205.713 45.2459M199.874 45.2459L205.713 51.0844" stroke="#F3B7B6"/>
<path d="M151.626 42.6605C151.626 44.8025 149.89 46.539 147.748 46.539C145.606 46.539 143.869 44.8025 143.869 42.6605C143.869 40.5185 145.606 38.7821 147.748 38.7821C149.89 38.7821 151.626 40.5185 151.626 42.6605Z" stroke="#F3B7B6" stroke-width="0.5"/>
<circle cx="150.5" cy="114.606" r="40.5" fill="#FFE4E3" stroke="#F3B7B6" stroke-miterlimit="10"/>
<path d="M146.375 122.424L139.878 115.927C139.147 115.197 137.963 115.195 137.23 115.923C136.492 116.655 136.49 117.846 137.225 118.581L145.668 127.023C146.058 127.414 146.691 127.414 147.082 127.024L167.553 106.553C168.283 105.823 168.283 104.639 167.553 103.908C166.823 103.178 165.639 103.178 164.909 103.908L146.375 122.424Z" fill="white"/>
</svg>
