<svg width="200" height="140" viewBox="0 0 200 140" fill="none" xmlns="http://www.w3.org/2000/svg">
<ellipse cx="100" cy="124" rx="28.4404" ry="4.58716" fill="#3E1919"/>
<path d="M54.5459 51.5229C54.5459 53.2735 53.1267 54.6926 51.3761 54.6926C49.6256 54.6926 48.2064 53.2735 48.2064 51.5229C48.2064 49.7723 49.6256 48.3531 51.3761 48.3531C53.1267 48.3531 54.5459 49.7723 54.5459 51.5229Z" stroke="#5B1715"/>
<path d="M49.5413 39.5963H55.0458M52.2936 36.844V42.3486" stroke="#5B1715"/>
<path d="M141.284 51.5229H148.624M144.954 47.8531V55.1926" stroke="#5B1715" stroke-width="1.5"/>
<path d="M132.916 34.203L136.809 30.3107M132.916 30.3107L136.809 34.203" stroke="#5B1715"/>
<path d="M100.667 28.5871C100.667 29.9691 99.5471 31.0894 98.1651 31.0894C96.7832 31.0894 95.6628 29.9691 95.6628 28.5871C95.6628 27.2052 96.7832 26.0848 98.1651 26.0848C99.5471 26.0848 100.667 27.2052 100.667 28.5871Z" stroke="#5B1715" stroke-width="0.5"/>
<g clip-path="url(#clip0_21853_28493)">
<path d="M134 55.6776H64V101.358H134V55.6776Z" fill="#5B1715"/>
<path d="M72.3243 55.6776H64V101.358H72.3243V55.6776Z" fill="#5B1715"/>
<path d="M99.1084 55.6776H96.8071V101.358H99.1084V55.6776Z" fill="#5B1715"/>
<path d="M101.327 55.6776H99.0259V101.358H101.327V55.6776Z" fill="#5B1715"/>
<path d="M133.944 55.6776H125.62V101.358H133.944V55.6776Z" fill="#5B1715"/>
<path d="M132.766 56.3373H65.2344V100.701H132.766V56.3373Z" fill="#2B1616"/>
<path d="M98.999 56.3373H65.2344V100.701H98.999V56.3373Z" fill="#3E1919"/>
<path d="M67.9864 56.3373H65.2344V100.701H67.9864V56.3373Z" fill="#121212"/>
<path d="M96.2324 61.8951H71.092V63.5389H96.2324V61.8951Z" fill="#5B1715"/>
<path d="M96.2324 66.4149H71.092V67.2358H96.2324V66.4149Z" fill="#5B1715"/>
<path d="M96.2324 68.222H71.092V69.0429H96.2324V68.222Z" fill="#5B1715"/>
<path d="M96.2324 70.0292H71.092V70.85H96.2324V70.0292Z" fill="#5B1715"/>
<path d="M96.2324 71.8363H71.092V72.6572H96.2324V71.8363Z" fill="#5B1715"/>
<path d="M96.2324 73.6434H71.092V74.4643H96.2324V73.6434Z" fill="#5B1715"/>
<path d="M96.2324 75.4506H71.092V76.2714H96.2324V75.4506Z" fill="#5B1715"/>
<path d="M96.2324 79.0669H71.092V79.8877H96.2324V79.0669Z" fill="#5B1715"/>
<path d="M96.2324 80.874H71.092V81.6949H96.2324V80.874Z" fill="#5B1715"/>
<path d="M96.2324 82.6812H71.092V83.502H96.2324V82.6812Z" fill="#5B1715"/>
<path d="M96.2324 86.2974H71.092V87.1182H96.2324V86.2974Z" fill="#5B1715"/>
<path d="M96.2324 88.1045H71.092V88.9253H96.2324V88.1045Z" fill="#5B1715"/>
<path d="M96.2324 89.9116H71.092V90.7325H96.2324V89.9116Z" fill="#5B1715"/>
<path d="M96.2324 91.6361H71.092V92.457H96.2324V91.6361Z" fill="#5B1715"/>
<path d="M96.2324 93.4452H71.092V94.266H96.2324V93.4452Z" fill="#5B1715"/>
<path d="M132.892 56.3373H130.14V100.701H132.892V56.3373Z" fill="#5B1715"/>
<path d="M98.8337 100.509L76.1885 106.563V50.4724L98.8337 56.5292V100.509Z" fill="#121212" stroke="#5B1715" stroke-width="0.5"/>
</g>
<defs>
<clipPath id="clip0_21853_28493">
<rect width="70" height="62.695" fill="white" transform="translate(64 50.1467)"/>
</clipPath>
</defs>
</svg>
