<svg width="200" height="140" viewBox="0 0 200 140" fill="none" xmlns="http://www.w3.org/2000/svg">
<ellipse cx="100" cy="124" rx="28.4404" ry="4.58716" fill="#3E1919"/>
<path d="M54.5459 51.5229C54.5459 53.2735 53.1267 54.6926 51.3761 54.6926C49.6256 54.6926 48.2064 53.2735 48.2064 51.5229C48.2064 49.7723 49.6256 48.3531 51.3761 48.3531C53.1267 48.3531 54.5459 49.7723 54.5459 51.5229Z" stroke="#5B1715"/>
<path d="M49.5413 39.5963H55.0458M52.2936 36.844V42.3486" stroke="#5B1715"/>
<path d="M141.284 51.5229H148.624M144.954 47.8531V55.1926" stroke="#5B1715" stroke-width="1.5"/>
<path d="M132.916 34.203L136.809 30.3107M132.916 30.3107L136.809 34.203" stroke="#5B1715"/>
<path d="M100.667 28.5871C100.667 29.9691 99.5471 31.0894 98.1651 31.0894C96.7832 31.0894 95.6628 29.9691 95.6628 28.5871C95.6628 27.2052 96.7832 26.0848 98.1651 26.0848C99.5471 26.0848 100.667 27.2052 100.667 28.5871Z" stroke="#5B1715" stroke-width="0.5"/>
<g clip-path="url(#clip0_21853_28492)">
<circle cx="100" cy="77" r="27" fill="#2B1616" stroke="#5B1715" stroke-miterlimit="10"/>
<path d="M97.25 82.2126L92.9188 77.8813C92.4316 77.3941 91.6421 77.3927 91.1531 77.8782C90.6618 78.3661 90.6604 79.1604 91.15 79.6501L96.5429 85.0429C96.9334 85.4335 97.5666 85.4335 97.9571 85.0429L111.369 71.6315C111.855 71.1447 111.855 70.3554 111.369 69.8686C110.882 69.3819 110.093 69.3818 109.606 69.8682L97.25 82.2126Z" fill="#5B1715"/>
</g>
<defs>
<clipPath id="clip0_21853_28492">
<rect width="62" height="69" fill="white" transform="translate(69 35.4496)"/>
</clipPath>
</defs>
</svg>
