<svg width="301" height="210" viewBox="0 0 301 210" fill="none" xmlns="http://www.w3.org/2000/svg">
<ellipse cx="150.5" cy="185.78" rx="42.6606" ry="6.88074" fill="#FFF4F4"/>
<path d="M82.5687 77.0642C82.5687 79.8282 80.3281 82.0688 77.5642 82.0688C74.8002 82.0688 72.5596 79.8282 72.5596 77.0642C72.5596 74.3003 74.8002 72.0596 77.5642 72.0596C80.3281 72.0596 82.5687 74.3003 82.5687 77.0642Z" stroke="#F3B7B6"/>
<path d="M74.812 59.1743H83.0689M78.9405 55.0458V63.3027" stroke="#F3B7B6"/>
<path d="M212.427 77.0642H223.436M217.931 71.5596V82.5688" stroke="#F3B7B6" stroke-width="1.5"/>
<path d="M199.874 51.0844L205.713 45.2459M199.874 45.2459L205.713 51.0844" stroke="#F3B7B6"/>
<path d="M151.626 42.6605C151.626 44.8025 149.89 46.539 147.748 46.539C145.606 46.539 143.869 44.8025 143.869 42.6605C143.869 40.5185 145.606 38.7821 147.748 38.7821C149.89 38.7821 151.626 40.5185 151.626 42.6605Z" stroke="#F3B7B6" stroke-width="0.5"/>
<g clip-path="url(#clip0_21617_16248)">
<path d="M201.5 83.2963H96.5V151.817H201.5V83.2963Z" fill="#F9CDCC"/>
<path d="M108.986 83.2963H96.5V151.817H108.986V83.2963Z" fill="#F9CDCC"/>
<path d="M149.163 83.2963H145.711V151.817H149.163V83.2963Z" fill="#F3B3B1"/>
<path d="M152.491 83.2963H149.039V151.817H152.491V83.2963Z" fill="#F9CDCC"/>
<path d="M201.416 83.2963H188.93V151.817H201.416V83.2963Z" fill="#F9CDCC"/>
<path d="M199.648 84.2858H98.3516V150.831H199.648V84.2858Z" fill="#FFEAEA"/>
<path d="M148.998 84.2858H98.3516V150.831H148.998V84.2858Z" fill="#FFEFEE"/>
<path d="M102.48 84.2858H98.3516V150.831H102.48V84.2858Z" fill="white"/>
<path d="M144.849 92.6226H107.138V95.0882H144.849V92.6226Z" fill="#F9CDCC"/>
<path d="M144.849 99.4023H107.138V100.634H144.849V99.4023Z" fill="#F9CDCC"/>
<path d="M144.849 102.113H107.138V103.344H144.849V102.113Z" fill="#F9CDCC"/>
<path d="M144.849 104.824H107.138V106.055H144.849V104.824Z" fill="#F9CDCC"/>
<path d="M144.849 107.534H107.138V108.766H144.849V107.534Z" fill="#F9CDCC"/>
<path d="M144.849 110.245H107.138V111.476H144.849V110.245Z" fill="#F9CDCC"/>
<path d="M144.849 112.956H107.138V114.187H144.849V112.956Z" fill="#F9CDCC"/>
<path d="M144.849 118.38H107.138V119.611H144.849V118.38Z" fill="#F9CDCC"/>
<path d="M144.849 121.091H107.138V122.322H144.849V121.091Z" fill="#F9CDCC"/>
<path d="M144.849 123.802H107.138V125.033H144.849V123.802Z" fill="#F9CDCC"/>
<path d="M144.849 129.226H107.138V130.457H144.849V129.226Z" fill="#F9CDCC"/>
<path d="M144.849 131.937H107.138V133.168H144.849V131.937Z" fill="#F9CDCC"/>
<path d="M144.849 134.647H107.138V135.879H144.849V134.647Z" fill="#F9CDCC"/>
<path d="M144.849 137.234H107.138V138.465H144.849V137.234Z" fill="#F9CDCC"/>
<path d="M144.849 139.948H107.138V141.179H144.849V139.948Z" fill="#F9CDCC"/>
<path d="M199.838 84.2858H195.709V150.831H199.838V84.2858Z" fill="#FADFDE"/>
<path d="M148.875 150.639L114.658 159.788V75.3257L148.875 84.4777V150.639Z" fill="white" stroke="#F9CDCC" stroke-width="0.5"/>
</g>
<defs>
<clipPath id="clip0_21617_16248">
<rect width="105" height="94.0425" fill="white" transform="translate(96.5 75)"/>
</clipPath>
</defs>
</svg>
