<svg width="24" height="25" viewBox="0 0 24 25" fill="none" xmlns="http://www.w3.org/2000/svg">
<path fill-rule="evenodd" clip-rule="evenodd" d="M15 18.1749H20C20.5523 18.1749 21 17.7272 21 17.1749V5.17493C21 4.62264 20.5523 4.17493 20 4.17493H4C3.44772 4.17493 3 4.62264 3 5.17493V17.1749C3 17.7272 3.44772 18.1749 4 18.1749H9L11.2407 20.7891C11.6398 21.2547 12.3602 21.2547 12.7593 20.7891L15 18.1749ZM11.6213 19.7355C11.8207 19.9669 12.1793 19.9669 12.3787 19.7355L14.5858 17.1749H19.5C19.7761 17.1749 20 16.9511 20 16.6749V5.67493C20 5.39878 19.7761 5.17493 19.5 5.17493H4.5C4.22386 5.17493 4 5.39878 4 5.67493V16.6749C4 16.9511 4.22386 17.1749 4.5 17.1749H9.41421L11.6213 19.7355Z" fill="#7A7A7A"/>
<circle cx="8" cy="11.1749" r="1" fill="#7A7A7A"/>
<circle cx="12" cy="11.1749" r="1" fill="#7A7A7A"/>
<circle cx="16" cy="11.1749" r="1" fill="#7A7A7A"/>
</svg>
