<svg width="24" height="25" viewBox="0 0 24 25" fill="none" xmlns="http://www.w3.org/2000/svg">
<path fill-rule="evenodd" clip-rule="evenodd" d="M10.5662 4.1759C10.3906 4.1759 10.2278 4.26805 10.1374 4.41866L9.3831 5.6759H14.6169L13.8626 4.41866C13.7722 4.26805 13.6094 4.1759 13.4338 4.1759H10.5662ZM16.0662 5.6759C15.8906 5.6759 15.7278 5.58375 15.6374 5.43315L14.72 3.90416C14.449 3.45235 13.9607 3.1759 13.4338 3.1759H10.5662C10.0393 3.1759 9.55104 3.45235 9.27995 3.90416L8.2169 5.6759H3.5C3.22386 5.6759 3 5.89976 3 6.1759C3 6.45205 3.22386 6.6759 3.5 6.6759H5.25V19.6759C5.25 20.5043 5.92157 21.1759 6.75 21.1759H17C17.8284 21.1759 18.5 20.5043 18.5 19.6759V6.6759H20C20.2761 6.6759 20.5 6.45205 20.5 6.1759C20.5 5.89976 20.2761 5.6759 20 5.6759H16.0662ZM17.5 6.6759V19.6759C17.5 19.952 17.2761 20.1759 17 20.1759H6.75C6.47386 20.1759 6.25 19.952 6.25 19.6759V6.6759H17.5ZM10.5 16.6759C10.2239 16.6759 10 16.452 10 16.1759V10.1759C10 9.89976 10.2239 9.6759 10.5 9.6759C10.7761 9.6759 11 9.89976 11 10.1759V16.1759C11 16.452 10.7761 16.6759 10.5 16.6759ZM13.5 16.6759C13.2239 16.6759 13 16.452 13 16.1759V10.1759C13 9.89976 13.2239 9.6759 13.5 9.6759C13.7761 9.6759 14 9.89976 14 10.1759V16.1759C14 16.452 13.7761 16.6759 13.5 16.6759Z" fill="#7A7A7A"/>
</svg>
