<svg width="45" height="46" viewBox="0 0 45 46" fill="none" xmlns="http://www.w3.org/2000/svg">
<g clip-path="url(#clip0_20349_6306)">
<rect y="0.174805" width="45" height="45" rx="22.5" fill="#FFBEBB"/>
<path d="M23.9802 9.39698C25.6028 9.39698 33.8988 11.1309 36.4679 25.965C37.2672 31.7554 38.1541 34.587 38.4842 35.2949C38.528 35.2949 38.5637 35.2909 38.5956 35.2909C38.6473 35.5296 38.5995 35.5455 38.4842 35.2949C36.5275 35.3943 25.1932 36.2295 16.8615 35.2909C10.1126 34.5313 2.76318 28.3909 2.76318 28.3909C9.44447 23.1771 12.1846 17.9713 13.2027 14.7897C16.1178 8.59363 23.1491 9.39698 23.9802 9.39698Z" fill="black"/>
<path d="M15.7366 29.1347C10.491 27.1144 11.5568 18.8701 14.1856 15.7045C20.5567 15.7443 24.3268 11.4889 24.2155 11.8627C23.0224 15.9232 23.3445 18.8145 24.1518 20.8467C24.1518 20.8467 25.6193 18.3969 27.1624 20.5246C28.0254 22.1273 26.1841 23.9408 26.1841 23.9408C26.1841 23.9408 25.6869 25.7264 26.1841 28.6773C27.222 31.9822 29.7951 33.2349 29.7792 33.2508C26.4306 37.538 23.5314 37.6772 20.326 36.3687L18.6636 29.1148C18.2142 29.254 16.8024 29.5483 15.7366 29.1347Z" fill="#FFCDCD"/>
<path d="M26.2279 20.7075C25.6512 20.4769 25.0149 20.8626 24.7683 21.0853C24.7683 21.0853 25.4722 20.9103 25.9216 20.97C26.3511 21.0257 26.5659 21.3836 26.5659 21.3836C26.5898 21.2205 26.55 20.8586 26.2279 20.7075Z" fill="#F19999"/>
<path d="M25.1776 24.3902C24.6765 24.4578 24.3583 24.2112 24.2629 24.08C24.2589 24.2549 24.3146 24.6129 24.5413 24.6526C24.768 24.6924 25.0623 24.4936 25.1776 24.3902Z" fill="#F19999"/>
<path d="M19.2796 24.7044C20.1011 24.7044 20.767 24.0385 20.767 23.217C20.767 22.3955 20.1011 21.7296 19.2796 21.7296C18.4582 21.7296 17.7922 22.3955 17.7922 23.217C17.7922 24.0385 18.4582 24.7044 19.2796 24.7044Z" fill="#F19999"/>
<path d="M13.7397 20.7194C13.6045 21.5307 12.8211 22.0715 12.0098 21.9363C12.0098 21.9363 12.0495 21.2563 12.2046 20.445C12.3399 19.6337 12.5665 19.0093 12.5665 19.0093C13.3739 19.1445 13.875 19.912 13.7397 20.7194Z" fill="#F19999"/>
<path d="M18.6633 29.1148C20.2223 28.5779 23.7578 26.9394 25.6429 24.7481L25.7542 24.6168C25.7185 24.6606 25.6827 24.7043 25.6429 24.7481L19.3752 32.2049L18.6633 29.1148Z" fill="#F19999"/>
<path fill-rule="evenodd" clip-rule="evenodd" d="M16.0222 18.6277C16.167 18.7219 16.2081 18.9156 16.114 19.0605L15.8517 18.89L15.5894 18.7195C15.6835 18.5747 15.8773 18.5336 16.0222 18.6277ZM15.6648 23.0062C15.5643 23.3024 15.5643 23.3024 15.5642 23.3024L15.5635 23.3022L15.5622 23.3017L15.5581 23.3003L15.544 23.2953C15.5321 23.2911 15.5153 23.285 15.4943 23.2771C15.4522 23.2613 15.3931 23.2382 15.3225 23.2082C15.1822 23.1487 14.9926 23.0602 14.8007 22.9458C14.611 22.8328 14.4057 22.6865 14.2445 22.5075C14.0838 22.3292 13.9441 22.0921 13.9441 21.8051C13.9441 21.6825 13.9906 21.5445 14.0342 21.4332C14.083 21.3089 14.1502 21.1652 14.2271 21.0136C14.3813 20.7095 14.5847 20.3525 14.7854 20.0148C14.9866 19.6761 15.1874 19.3525 15.3378 19.1138C15.4131 18.9944 15.4758 18.8961 15.5198 18.8275C15.5418 18.7932 15.5591 18.7663 15.571 18.748L15.5846 18.727L15.5894 18.7195C15.5894 18.7195 15.5894 18.7195 15.8517 18.89L16.114 19.0605L16.1097 19.0672L16.0966 19.0874C16.0851 19.1052 16.0681 19.1315 16.0465 19.1652C16.0033 19.2326 15.9414 19.3296 15.8672 19.4474C15.7186 19.6833 15.5208 20.0019 15.3233 20.3344C15.1252 20.6677 14.93 21.0108 14.7851 21.2965C14.7125 21.4397 14.6552 21.5635 14.6167 21.6616C14.5831 21.7474 14.5734 21.7906 14.5707 21.8025C14.5699 21.806 14.5698 21.8068 14.5698 21.8051C14.5698 21.8801 14.606 21.974 14.7093 22.0888C14.8121 22.2028 14.9587 22.3116 15.121 22.4084C15.2811 22.5038 15.4434 22.5798 15.5671 22.6323C15.6285 22.6584 15.6793 22.6783 15.7143 22.6914C15.7318 22.698 15.7452 22.7028 15.7539 22.7059L15.7634 22.7093L15.7652 22.7099C15.7652 22.7099 15.7653 22.7099 15.7652 22.7099C15.9287 22.7655 16.0165 22.9431 15.961 23.1066C15.9056 23.2702 15.7278 23.3579 15.5642 23.3024L15.6648 23.0062Z" fill="black"/>
<path fill-rule="evenodd" clip-rule="evenodd" d="M25.2649 25.0941C25.3857 25.1883 25.4072 25.3626 25.3129 25.4834C24.5948 26.4038 22.5525 28.2865 19.9983 29.1624C19.8534 29.2121 19.6956 29.1349 19.6459 28.99C19.5962 28.8451 19.6734 28.6873 19.8183 28.6376C22.2512 27.8034 24.2097 25.9955 24.8756 25.1422C24.9698 25.0214 25.1441 24.9999 25.2649 25.0941Z" fill="black"/>
<path d="M19.6423 20.1369C19.899 19.8937 19.9565 19.5376 19.7707 19.3414C19.585 19.1453 19.2262 19.1834 18.9695 19.4266C18.7128 19.6698 18.6552 20.0259 18.841 20.2221C19.0268 20.4182 19.3856 20.3801 19.6423 20.1369Z" fill="black"/>
<path d="M14.5848 18.4514C14.7773 18.1548 14.7498 17.7951 14.5232 17.6479C14.2966 17.5008 13.9568 17.622 13.7642 17.9186C13.5716 18.2151 13.5992 18.5748 13.8258 18.722C14.0524 18.8691 14.3922 18.7479 14.5848 18.4514Z" fill="black"/>
<path d="M46.6169 44.8754C41.0571 37.6533 32.8606 34.0342 29.4921 33.1315C23.642 36.3886 20.9337 34.8575 19.9514 34.3007C19.7366 34.1774 19.6014 34.1018 19.5378 34.1376C19.4741 34.1695 19.2992 34.2331 19.0327 34.3325C17.768 34.8018 14.4791 36.0227 11.6236 37.9436C8.59319 39.9838 5.72979 43.1852 3.14079 46.0844C0.305218 49.254 -2.20026 52.0578 -4.23249 52.5629C-8.07821 53.5213 -13.6141 45.6907 -14.9862 43.7539C-15.1453 43.5312 -15.2487 43.3841 -15.2845 43.3403L-20.2676 53.6327C-16.6287 56.6711 -8.64293 62.8393 -5.82327 63.2012C-1.76678 63.7222 1.28753 60.7395 4.23048 57.8681C5.97238 56.166 7.67452 54.5076 9.51983 53.6327C13.4928 51.7556 13.4928 53.6327 13.4928 53.6327L7.89723 73.4021L37.7761 78.7273V73.4021C42.1706 72.38 51.5125 69.1587 53.7515 64.4659C56.5473 58.5959 53.5686 53.8991 46.6169 44.8754ZM37.3267 63.8216L36.9887 50.3954C39.0447 51.5249 43.3478 54.4639 44.1074 57.1761C44.867 59.8884 39.9038 62.7359 37.3267 63.8216Z" fill="#FFB905"/>
<path fill-rule="evenodd" clip-rule="evenodd" d="M29.2307 33.2804C29.2759 33.3557 29.2514 33.4534 29.176 33.4986C24.8449 36.0924 21.262 35.2444 19.984 34.4685C19.9089 34.4229 19.885 34.325 19.9306 34.2499C19.9762 34.1748 20.074 34.1509 20.1491 34.1965C21.321 34.908 24.7773 35.7621 29.0125 33.2256C29.0879 33.1805 29.1856 33.205 29.2307 33.2804Z" fill="black"/>
</g>
<defs>
<clipPath id="clip0_20349_6306">
<rect y="0.174805" width="45" height="45" rx="22.5" fill="white"/>
</clipPath>
</defs>
</svg>
