<svg width="45" height="46" viewBox="0 0 45 46" fill="none" xmlns="http://www.w3.org/2000/svg">
<g clip-path="url(#clip0_20349_6540)">
<rect y="0.174927" width="45" height="45" rx="22.5" fill="#99DDFB"/>
<path d="M16.346 13.2342C23.6558 6.62739 28.8431 11.3206 30.522 14.5011C30.9396 15.0756 31.6933 16.8133 31.3442 19.2176C30.9078 22.2229 26.0418 26.0379 26.1405 26.5932C27.5508 30.2865 30.5846 32.4462 31.9226 33.0603L27.8767 41.9997C25.4124 40.2688 20.462 36.7436 20.4144 36.4856C17.1649 31.6539 16.4896 27.8116 16.4896 27.8116C14.0591 27.6873 7.20349 21.4997 16.346 13.2342Z" fill="#FFCDCD"/>
<path fill-rule="evenodd" clip-rule="evenodd" d="M17.3904 15.4225C17.5692 15.3042 17.8099 15.3533 17.9282 15.532C18.0464 15.7108 17.9973 15.9515 17.8185 16.0698L17.6045 15.7462L17.3904 15.4225ZM14.846 17.8833L15.2017 18.0383C15.1798 18.0887 15.1713 18.1749 15.2203 18.319C15.2688 18.4618 15.3607 18.6207 15.4747 18.7778C15.5868 18.9323 15.7093 19.07 15.8051 19.1702C15.8526 19.2199 15.8927 19.2593 15.9203 19.2859C15.9341 19.2991 15.9447 19.3091 15.9516 19.3155L15.9589 19.3223L15.9601 19.3233C16.1192 19.4668 16.1321 19.7122 15.9887 19.8714C15.8453 20.0307 15.5999 20.0436 15.4406 19.9002L15.7004 19.6118C15.4406 19.9002 15.4407 19.9003 15.4406 19.9002L15.4399 19.8995L15.4387 19.8985L15.4352 19.8953L15.4234 19.8844C15.4135 19.8752 15.3996 19.8621 15.3824 19.8456C15.3481 19.8126 15.3002 19.7654 15.2442 19.7069C15.1329 19.5906 14.9855 19.4254 14.8465 19.2338C14.7094 19.0449 14.5689 18.8146 14.4854 18.5688C14.4023 18.3243 14.3621 18.0222 14.4903 17.7283L14.4907 17.7273C14.5472 17.5986 14.6575 17.4788 14.7458 17.3906C14.8467 17.2898 14.9732 17.1787 15.1115 17.0645C15.3889 16.8355 15.7357 16.5763 16.071 16.3349C16.4073 16.0926 16.7369 15.8647 16.9821 15.6976C17.1048 15.6139 17.2066 15.5453 17.2779 15.4976C17.3135 15.4737 17.3415 15.455 17.3606 15.4423L17.3826 15.4277L17.3904 15.4225C17.3904 15.4225 17.3904 15.4225 17.6045 15.7462L17.8185 16.0698L17.8116 16.0744L17.7906 16.0884C17.7721 16.1007 17.7448 16.1189 17.7099 16.1423C17.6401 16.1891 17.54 16.2566 17.4191 16.3389C17.1773 16.5037 16.8536 16.7276 16.5244 16.9647C16.1942 17.2025 15.8635 17.4501 15.6056 17.663C15.4762 17.7698 15.3706 17.8635 15.2942 17.9397C15.2216 18.0123 15.2001 18.0452 15.1992 18.0446C15.199 18.0445 15.1998 18.0427 15.2013 18.0393L14.846 17.8833Z" fill="black"/>
<path d="M25.0664 23.6071C24.383 23.5424 24.0276 23.1922 23.9289 23.0249C23.8821 23.2126 23.8617 23.623 24.151 23.724C24.4525 23.8308 24.8912 23.6882 25.0664 23.6071Z" fill="#E34545"/>
<path d="M27.4425 20.4771C26.6465 20.1877 25.7949 20.737 25.4609 21.0405C25.4609 21.0405 26.4121 20.7773 27.0356 20.8353C27.6285 20.8938 27.934 21.3599 27.934 21.3599C27.9509 21.1442 27.8866 20.6661 27.4425 20.4771Z" fill="#E34545"/>
<path d="M22.5782 25.5132C22.5782 25.5132 21.2487 26.6984 16.3037 27.7068C16.3037 27.7068 17.1385 30.9303 18.3501 32.8054C21.3079 28.1876 22.5782 25.5132 22.5782 25.5132Z" fill="#F19999"/>
<path fill-rule="evenodd" clip-rule="evenodd" d="M24.2372 24.362C24.3836 24.5194 24.3748 24.7643 24.2177 24.9091C23.4034 25.6594 21.9805 26.3507 20.6429 26.8726C19.2976 27.3974 17.9645 27.7788 17.2875 27.8825C17.0755 27.9151 16.876 27.7701 16.842 27.5587C16.808 27.3473 16.9524 27.1496 17.1645 27.1171C17.7611 27.0256 19.0342 26.6666 20.3553 26.1512C21.684 25.6328 22.9876 24.984 23.6875 24.3392C23.8447 24.1944 24.0908 24.2046 24.2372 24.362Z" fill="black"/>
<path d="M26.3532 6.98738C25.3712 4.51439 22.4033 0.434805 18.4298 3.87535C14.9061 6.92163 23.0768 12.6253 27.5175 16.5071C28.0869 16.9975 26.8702 19.4576 26.8702 19.4576C28.1274 19.0106 30.1056 19.8252 29.1292 21.6599C28.2884 23.2427 25.7987 23.8835 25.5511 23.7474C25.5511 23.7474 25.7104 24.6893 26.5058 26.4951C28.8612 25.0155 33.7911 21.3979 34.6101 18.8041C35.6299 15.558 35.7159 10.1581 32.6642 7.66718C30.2241 5.67196 28.9565 6.59141 28.6298 7.28832C28.7304 6.81446 28.6696 5.80705 27.6158 5.55009C26.8571 5.36142 26.3356 6.40272 26.3532 6.98738Z" fill="black"/>
<path d="M21.2273 16.9927C21.1747 16.6809 20.8867 16.4707 20.584 16.5232C20.2813 16.5757 20.0786 16.871 20.1312 17.1828C20.1839 17.4947 20.4719 17.7049 20.7746 17.6524C21.0773 17.5999 21.28 17.3045 21.2273 16.9927Z" fill="black"/>
<path d="M16.5766 14.5914C16.7552 14.3348 16.7539 14.0291 16.5735 13.9086C16.3932 13.788 16.1022 13.8983 15.9236 14.1549C15.7449 14.4115 15.7463 14.7172 15.9266 14.8377C16.1069 14.9583 16.3979 14.848 16.5766 14.5914Z" fill="black"/>
<path d="M29.622 32.6319L20.2173 37.0494L17.5204 33.0515C16.6997 32.9409 14.0858 33.3077 10.1883 35.582C6.29086 37.8563 -0.222359 43.6896 -1.58134 47.5319L8.76272 55.3947L7.31525 67.2967C19.924 64.2883 30.4491 69.2102 34.1294 72.0405C34.218 64.7078 34.7732 49.9323 36.2942 49.5185C37.812 49.0956 41.914 51.6794 43.776 53.0264L49.8458 40.4885C43.1155 35.2366 32.9462 33.949 29.622 32.6319Z" fill="#00C471"/>
<path d="M7.17552 45.3976C8.06842 45.0869 8.54016 44.111 8.22918 43.2178C7.91819 42.3246 6.94225 41.8524 6.04936 42.1631C5.15646 42.4738 4.68472 43.4498 4.9957 44.3429C5.30668 45.2361 6.28262 45.7083 7.17552 45.3976Z" fill="white"/>
<path d="M20.2514 44.1394C21.1443 43.8287 21.6161 42.8528 21.3051 41.9596C20.9941 41.0664 20.0182 40.5942 19.1253 40.9049C18.2324 41.2157 17.7606 42.1916 18.0716 43.0848C18.3826 43.9779 19.3585 44.4501 20.2514 44.1394Z" fill="white"/>
<path d="M33.0259 40.0964C33.9188 39.7857 34.3905 38.8098 34.0795 37.9166C33.7685 37.0235 32.7926 36.5513 31.8997 36.862C31.0068 37.1727 30.5351 38.1486 30.846 39.0418C31.157 39.935 32.133 40.4071 33.0259 40.0964Z" fill="white"/>
<path d="M43.935 48.7135C44.8279 48.4028 45.2997 47.4269 44.9887 46.5337C44.6777 45.6405 43.7018 45.1683 42.8089 45.479C41.916 45.7898 41.4442 46.7657 41.7552 47.6589C42.0662 48.552 43.0421 49.0242 43.935 48.7135Z" fill="white"/>
<path fill-rule="evenodd" clip-rule="evenodd" d="M17.2059 31.7282C17.3809 31.6055 17.6241 31.6478 17.7491 31.8227L20.8204 36.1175L27.8209 32.9141C28.0156 32.825 28.2475 32.9102 28.3388 33.1043C28.4302 33.2985 28.3465 33.5281 28.1518 33.6172L20.564 37.0894L17.1155 32.2671C16.9905 32.0922 17.0309 31.851 17.2059 31.7282Z" fill="black"/>
<path d="M37.7383 42.8448C37.3329 44.3601 36.941 46.505 37.0248 49.0233" stroke="black" stroke-width="2.58731" stroke-linecap="round"/>
<path d="M35.243 44.0419C35.7177 48.2242 36.0843 54.0249 35.6346 60.5047" stroke="black" stroke-width="2.58731" stroke-linecap="round"/>
</g>
<defs>
<clipPath id="clip0_20349_6540">
<rect y="0.174927" width="45" height="45" rx="22.5" fill="white"/>
</clipPath>
</defs>
</svg>
