<svg width="201" height="140" viewBox="0 0 201 140" fill="none" xmlns="http://www.w3.org/2000/svg">
<ellipse cx="100.5" cy="123.853" rx="28.4404" ry="4.58716" fill="#FFF4F4"/>
<path d="M55.0459 51.3763C55.0459 53.1269 53.6267 54.546 51.8761 54.546C50.1256 54.546 48.7064 53.1269 48.7064 51.3763C48.7064 49.6257 50.1256 48.2065 51.8761 48.2065C53.6267 48.2065 55.0459 49.6257 55.0459 51.3763Z" stroke="#F3B7B6"/>
<path d="M50.0413 39.4496H55.5458M52.7936 36.6973V42.2019" stroke="#F3B7B6"/>
<path d="M141.784 51.3763H149.124M145.454 47.7065V55.046" stroke="#F3B7B6" stroke-width="1.5"/>
<path d="M133.416 34.056L137.309 30.1637M133.416 30.1637L137.309 34.056" stroke="#F3B7B6"/>
<path d="M101.167 28.4403C101.167 29.8223 100.047 30.9426 98.6651 30.9426C97.2832 30.9426 96.1628 29.8223 96.1628 28.4403C96.1628 27.0583 97.2832 25.938 98.6651 25.938C100.047 25.938 101.167 27.0583 101.167 28.4403Z" stroke="#F3B7B6" stroke-width="0.5"/>
<circle cx="100.5" cy="74.8535" r="35" fill="#FFF4F4"/>
<path d="M112.863 55.1978C125.393 55.1978 135.5 64.3102 135.5 75.5127C135.5 81.9499 132.159 87.7183 126.896 91.4803V99.924C126.896 101.094 125.56 101.68 124.724 101.011L117.541 95.4096C116.037 95.6604 114.533 95.8276 112.946 95.8276C100.416 95.8276 90.3091 86.7151 90.3091 75.5127C90.3091 64.3102 100.416 55.1978 112.863 55.1978Z" fill="#FFE4E3" stroke="#F3B7B6" stroke-miterlimit="10"/>
<path d="M90.7267 54.1943C76.7768 54.1943 65.5 64.31 65.5 76.7664C65.5 83.9561 69.2589 90.3933 75.1062 94.4897V103.853C75.1062 105.107 76.5263 105.859 77.5286 105.023L85.5477 98.837C87.2184 99.1714 88.889 99.3386 90.6432 99.3386C104.593 99.3386 115.87 89.2229 115.87 76.7664C115.87 64.31 104.593 54.1943 90.7267 54.1943Z" fill="white" stroke="#F3B7B6" stroke-miterlimit="10"/>
<path d="M82.4988 77.6866C84.0212 77.6866 85.2553 76.4514 85.2553 74.9278C85.2553 73.4041 84.0212 72.1689 82.4988 72.1689C80.9763 72.1689 79.7422 73.4041 79.7422 74.9278C79.7422 76.4514 80.9763 77.6866 82.4988 77.6866Z" fill="#F3B7B6"/>
<path d="M98.1194 77.6866C99.6418 77.6866 100.876 76.4514 100.876 74.9278C100.876 73.4041 99.6418 72.1689 98.1194 72.1689C96.5969 72.1689 95.3628 73.4041 95.3628 74.9278C95.3628 76.4514 96.5969 77.6866 98.1194 77.6866Z" fill="#F3B7B6"/>
<path d="M93.7756 82.9927C93.525 82.9927 93.2744 83.0763 93.1074 83.3271C92.4391 84.2467 91.4367 84.7483 90.2673 84.7483C89.1813 84.7483 88.0954 84.2467 87.5107 83.3271C87.2601 82.9091 86.7589 82.8255 86.3413 83.1599C85.9236 83.4107 85.8401 83.9123 86.1742 84.3303C87.093 85.6679 88.6802 86.5039 90.3508 86.5039C92.0214 86.5039 93.525 85.6679 94.5274 84.3303C94.778 83.9123 94.6945 83.4107 94.3603 83.1599C94.1097 82.9927 93.9427 82.9927 93.7756 82.9927Z" fill="#F3B7B6"/>
<path d="M84.5129 52.0733C84.4122 52.0733 84.3115 52.0733 84.2108 52.0733C83.7072 51.8717 83.405 51.3677 83.5057 50.8637L85.218 45.3196C85.4194 44.8156 85.923 44.5132 86.4266 44.614C86.9302 44.8156 87.2323 45.3196 87.1316 45.8236L85.5201 51.3677C85.4194 51.7709 85.0165 52.0733 84.5129 52.0733Z" fill="#F3B7B6"/>
<path d="M80.2827 53.2826C79.8798 53.2826 79.477 52.9802 79.2755 52.577L76.6568 44.6138C76.4554 44.1098 76.7576 43.505 77.2612 43.3034C77.7648 43.1018 78.3691 43.4042 78.5705 43.9082L81.1892 51.8714C81.3906 52.3754 81.0885 52.9802 80.5849 53.1818C80.4842 53.2826 80.3834 53.2826 80.2827 53.2826Z" fill="#F3B7B6"/>
<path d="M76.3547 55.198C76.0525 55.198 75.8511 55.0972 75.6497 54.8956L72.4267 51.7707C72.0238 51.3675 72.0238 50.7627 72.4267 50.3595C72.8295 49.9563 73.4339 49.9563 73.8367 50.3595L77.0597 53.4844C77.4626 53.8876 77.4626 54.4924 77.0597 54.8956C76.8583 55.0972 76.5561 55.198 76.3547 55.198Z" fill="#F3B7B6"/>
</svg>
