<?xml version="1.0" encoding="utf-8"?>
<!-- Generator: Adobe Illustrator 25.4.8, SVG Export Plug-In . SVG Version: 6.00 Build 0)  -->
<svg version="1.1" id="图层_1" xmlns="http://www.w3.org/2000/svg" xmlns:xlink="http://www.w3.org/1999/xlink" x="0px" y="0px"
	 viewBox="0 0 70.9 70.9" style="enable-background:new 0 0 70.9 70.9;" xml:space="preserve">
<style type="text/css">
	.st0{fill:#FFB24D;}
	.st1{fill:#FF7C48;}
	.st2{fill:#E6BE8A;}
	.st3{fill:#FFEBB7;}
	.st4{fill:#FFD788;}
	.st5{fill:#FFFFFF;}
	.st6{fill:#A0D468;}
	.st7{fill:#FFCE54;}
	.st8{fill:#AC92EC;}
	.st9{fill:#ED5565;}
</style>
<path class="st0" d="M59.9,25.2H12.1c-1.4,0-2.6,1.2-2.6,2.6V56c0,1.4,1.2,2.6,2.6,2.6H60c1.4,0,2.6-1.2,2.6-2.6V27.8
	C62.5,26.4,61.3,25.2,59.9,25.2z"/>
<path class="st1" d="M33.4,54.3h5.1v4.3h-5.1V54.3z"/>
<path class="st2" d="M59.1,51.7v2.6c0,0.5-0.4,0.9-0.9,0.9H13.8c-0.5,0-0.9-0.4-0.9-0.9v-2.6l5.1-2.6L38.6,50l17.1-0.9L59.1,51.7z"
	/>
<path class="st3" d="M14.1,52.9c7-2.9,15-2.7,21.9,0.5V22.7c-7.1-3.4-15.4-3.5-22.5-0.3c-0.4,0.2-0.6,0.5-0.6,0.8v28.9
	C12.9,52.8,13.6,53.2,14.1,52.9z"/>
<path class="st4" d="M36,53.5c6.9-3.3,14.9-3.4,21.9-0.5c0.6,0.2,1.2-0.2,1.2-0.8v-29c0-0.3-0.2-0.7-0.5-0.8
	c-7.2-3.2-15.4-3.1-22.6,0.2C36,22.6,36,53.5,36,53.5z"/>
<g>
	<path class="st3" d="M39.4,47.9c-0.4,0-0.7-0.2-0.8-0.6c-0.1-0.5,0.1-0.9,0.6-1.1c0.9-0.3,1.8-0.5,2.6-0.7c0.5-0.1,0.9,0.2,1,0.7
		s-0.2,0.9-0.7,1c-0.8,0.2-1.7,0.4-2.5,0.6C39.6,47.9,39.5,47.9,39.4,47.9z"/>
	<path class="st3" d="M55.7,47.9c-0.1,0-0.2,0-0.3,0c-3.2-1-6.6-1.4-9.9-1.1c-0.5,0-0.9-0.3-0.9-0.8s0.3-0.9,0.8-0.9
		c3.6-0.3,7.1,0.1,10.6,1.2c0.4,0.1,0.7,0.6,0.6,1.1C56.4,47.6,56,47.9,55.7,47.9z"/>
	<path class="st3" d="M55.7,44.4c-0.1,0-0.2,0-0.3,0c-5.1-1.6-10.6-1.6-15.7,0c-0.5,0.1-0.9-0.1-1.1-0.6c-0.1-0.5,0.1-0.9,0.6-1.1
		c5.5-1.7,11.3-1.7,16.8,0c0.4,0.1,0.7,0.6,0.6,1.1C56.4,44.2,56,44.4,55.7,44.4z"/>
	<path class="st3" d="M39.4,41c-0.4,0-0.7-0.2-0.8-0.6c-0.1-0.5,0.1-0.9,0.6-1.1c3.1-1,6.4-1.4,9.7-1.3c0.5,0,0.8,0.4,0.8,0.9
		s-0.4,0.8-0.9,0.8c-3.1-0.1-6.2,0.2-9.1,1.2C39.6,41,39.5,41,39.4,41z"/>
	<path class="st3" d="M55.7,41c-0.1,0-0.2,0-0.3,0c-1.1-0.3-2.2-0.6-3.3-0.8c-0.5-0.1-0.8-0.5-0.7-1s0.5-0.8,1-0.7
		c1.2,0.2,2.4,0.5,3.5,0.9c0.4,0.1,0.7,0.6,0.6,1.1C56.4,40.8,56,41,55.7,41z"/>
	<path class="st3" d="M55.7,37.6c-0.1,0-0.2,0-0.3,0c-5.1-1.6-10.6-1.6-15.7,0c-0.5,0.1-0.9-0.1-1.1-0.6c-0.1-0.5,0.1-0.9,0.6-1.1
		c5.5-1.7,11.3-1.7,16.8,0c0.4,0.1,0.7,0.6,0.6,1.1C56.4,37.4,56,37.6,55.7,37.6z"/>
	<path class="st3" d="M39.4,34.2c-0.4,0-0.7-0.2-0.8-0.6c-0.1-0.5,0.1-0.9,0.6-1.1c1.7-0.5,3.5-0.9,5.3-1.1c0.5-0.1,0.9,0.3,0.9,0.8
		c0.1,0.5-0.3,0.9-0.8,0.9c-1.7,0.2-3.4,0.5-5,1C39.6,34.2,39.5,34.2,39.4,34.2z"/>
	<path class="st3" d="M55.7,34.2c-0.1,0-0.2,0-0.3,0C53,33.4,50.5,33,48,33c-0.5,0-0.8-0.4-0.8-0.9c0-0.5,0.4-0.9,0.9-0.8
		c2.7,0,5.4,0.5,7.9,1.3c0.4,0.1,0.7,0.6,0.6,1.1C56.4,33.9,56,34.2,55.7,34.2z"/>
	<path class="st3" d="M39.4,30.8c-0.4,0-0.7-0.2-0.8-0.6c-0.1-0.5,0.1-0.9,0.6-1.1c3.7-1.2,7.6-1.5,11.5-1.1c0.4,0,0.8,0.5,0.7,0.9
		c-0.1,0.5-0.5,0.8-0.9,0.8c-3.6-0.4-7.3-0.1-10.8,1C39.6,30.8,39.5,30.8,39.4,30.8z"/>
	<path class="st3" d="M55.7,30.8c-0.1,0-0.2,0-0.3,0c-0.5-0.2-1.1-0.3-1.7-0.5c-0.5-0.1-0.7-0.6-0.6-1s0.6-0.7,1-0.6
		c0.6,0.1,1.2,0.3,1.8,0.5c0.4,0.1,0.7,0.6,0.6,1.1C56.4,30.5,56,30.8,55.7,30.8z"/>
	<path class="st3" d="M39.4,27.3c-0.4,0-0.7-0.2-0.8-0.6c-0.1-0.5,0.1-0.9,0.6-1.1c0.6-0.2,1.2-0.3,1.8-0.5c0.5-0.1,0.9,0.2,1,0.6
		s-0.2,0.9-0.6,1c-0.5,0.1-1.1,0.3-1.7,0.5C39.6,27.3,39.5,27.3,39.4,27.3z"/>
	<path class="st3" d="M55.7,27.3c-0.1,0-0.2,0-0.3,0c-3.5-1.1-7.1-1.4-10.8-1c-0.5,0.1-0.9-0.3-0.9-0.8s0.3-0.9,0.8-0.9
		c3.9-0.4,7.7-0.1,11.5,1.1c0.4,0.1,0.7,0.6,0.6,1.1C56.4,27.1,56,27.3,55.7,27.3z"/>
</g>
<g>
	<path class="st5" d="M16.4,47.9c-0.4,0-0.7-0.2-0.8-0.6c-0.1-0.5,0.1-0.9,0.6-1.1c0.9-0.3,1.8-0.5,2.6-0.7c0.5-0.1,0.9,0.2,1,0.7
		s-0.2,0.9-0.7,1c-0.8,0.2-1.7,0.4-2.5,0.6C16.5,47.9,16.4,47.9,16.4,47.9z"/>
	<path class="st5" d="M32.6,47.9c-0.1,0-0.2,0-0.3,0c-3.2-1-6.6-1.4-9.9-1.1c-0.5,0-0.9-0.3-0.9-0.8s0.3-0.9,0.8-0.9
		c3.6-0.3,7.1,0.1,10.6,1.2c0.4,0.1,0.7,0.6,0.6,1.1C33.3,47.6,33,47.9,32.6,47.9z"/>
	<path class="st5" d="M32.6,44.4c-0.1,0-0.2,0-0.3,0c-5.1-1.6-10.6-1.6-15.7,0c-0.5,0.1-0.9-0.1-1.1-0.6c-0.1-0.5,0.1-0.9,0.6-1.1
		c5.5-1.7,11.3-1.7,16.8,0c0.4,0.1,0.7,0.6,0.6,1.1C33.3,44.2,33,44.4,32.6,44.4z"/>
	<path class="st5" d="M16.4,41c-0.4,0-0.7-0.2-0.8-0.6c-0.1-0.5,0.1-0.9,0.6-1.1c3.1-1,6.4-1.4,9.7-1.3c0.5,0,0.8,0.4,0.8,0.9
		s-0.4,0.8-0.9,0.8c-3.1-0.1-6.2,0.2-9.1,1.2C16.5,41,16.4,41,16.4,41z"/>
	<path class="st5" d="M32.6,41c-0.1,0-0.2,0-0.3,0c-1.1-0.3-2.2-0.6-3.3-0.8c-0.5-0.1-0.8-0.5-0.7-1s0.5-0.8,1-0.7
		c1.2,0.2,2.4,0.5,3.5,0.9c0.4,0.1,0.7,0.6,0.6,1.1C33.3,40.8,33,41,32.6,41z"/>
	<path class="st5" d="M16.4,37.6c-0.4,0-0.7-0.2-0.8-0.6c-0.1-0.5,0.1-0.9,0.6-1.1c4.9-1.5,10-1.7,15-0.5c0.5,0.1,0.7,0.6,0.6,1
		c-0.1,0.5-0.6,0.7-1,0.6c-4.6-1.1-9.5-1-14.1,0.5C16.5,37.6,16.4,37.6,16.4,37.6z"/>
	<path class="st5" d="M16.4,34.2c-0.4,0-0.7-0.2-0.8-0.6c-0.1-0.5,0.1-0.9,0.6-1.1c1.7-0.5,3.5-0.9,5.3-1.1c0.5-0.1,0.9,0.3,0.9,0.8
		c0.1,0.5-0.3,0.9-0.8,0.9c-1.7,0.2-3.4,0.5-5,1C16.5,34.2,16.4,34.2,16.4,34.2z"/>
	<path class="st5" d="M30.9,33.7c-0.1,0-0.1,0-0.2,0c-1.9-0.5-3.8-0.7-5.8-0.7c-0.5,0-0.8-0.4-0.8-0.9c0-0.5,0.4-0.9,0.9-0.8
		c2.1,0,4.2,0.3,6.2,0.8c0.5,0.1,0.7,0.6,0.6,1C31.6,33.4,31.3,33.7,30.9,33.7z"/>
	<path class="st5" d="M16.4,30.8c-0.4,0-0.7-0.2-0.8-0.6c-0.2-0.5,0.1-1,0.5-1.1c3.7-1.2,7.6-1.5,11.5-1.1c0.5,0.1,0.8,0.5,0.8,0.9
		c-0.1,0.5-0.5,0.8-0.9,0.8c-3.6-0.4-7.3-0.1-10.8,1C16.5,30.8,16.4,30.8,16.4,30.8z"/>
	<path class="st5" d="M16.4,27.3c-0.4,0-0.7-0.2-0.9-0.6c-0.1-0.4,0.2-0.9,0.6-1c0.6-0.2,1.2-0.3,1.8-0.5c0.5-0.1,0.9,0.2,1,0.6
		s-0.2,0.9-0.6,1c-0.6,0.2-1.1,0.3-1.7,0.5C16.5,27.3,16.4,27.3,16.4,27.3z"/>
	<path class="st5" d="M30.9,26.9c-0.1,0-0.1,0-0.2,0c-3-0.7-6.1-0.9-9.1-0.6c-0.5,0.1-0.9-0.3-0.9-0.8c-0.1-0.5,0.3-0.9,0.8-0.9
		c3.3-0.4,6.5-0.2,9.7,0.6c0.5,0.1,0.7,0.6,0.6,1C31.6,26.6,31.3,26.9,30.9,26.9z"/>
</g>
<path class="st1" d="M30.9,35.9c0,0.3,0.4,0.5,0.7,0.4l1.9-1.3l1.9,1.3c0.3,0.2,0.7,0,0.7-0.4V22.7c0-0.3-0.2-0.6-0.5-0.8
	c-1.3-0.6-2.7-1.1-4.1-1.4c-0.3-0.1-0.5,0.1-0.5,0.4L30.9,35.9z"/>
<path class="st6" d="M25.8,17.8c-0.2,0-0.4-0.2-0.4-0.4c0-0.2,0.2-0.4,0.4-0.4l0,0c0.2,0,0.4,0.2,0.4,0.4
	C26.2,17.6,26,17.8,25.8,17.8z"/>
<path class="st6" d="M11.3,15.8c-0.2,0-0.4-0.2-0.4-0.4s0.2-0.4,0.4-0.4l0,0c0.2,0,0.4,0.2,0.4,0.4S11.6,15.8,11.3,15.8z"/>
<path class="st7" d="M30.6,16.2c-0.2,0-0.4-0.2-0.4-0.4v-3.1c0-0.2,0.2-0.4,0.4-0.4s0.4,0.2,0.4,0.4v3.1C31,16,30.8,16.2,30.6,16.2z
	"/>
<path class="st7" d="M31.4,14.6h-1.6c-0.2,0-0.4-0.1-0.4-0.4s0.2-0.4,0.4-0.4h1.6c0.2,0,0.4,0.2,0.4,0.4
	C31.8,14.4,31.6,14.6,31.4,14.6z"/>
<path class="st8" d="M10,22c-0.2,0-0.4-0.2-0.4-0.4v-3.1c0-0.2,0.2-0.4,0.4-0.4c0.2,0,0.4,0.2,0.4,0.4v3.1C10.4,21.9,10.3,22,10,22z
	"/>
<path class="st8" d="M10.8,20.5H9.3c-0.2,0-0.4-0.2-0.4-0.4s0.2-0.4,0.4-0.4h1.6c0.2,0,0.4,0.2,0.4,0.4S11,20.5,10.8,20.5z"/>
<path class="st8" d="M64.2,22.6c-0.2,0-0.4-0.2-0.4-0.4s0.2-0.4,0.4-0.4l0,0c0.2,0,0.4,0.2,0.4,0.4S64.4,22.6,64.2,22.6z"/>
<path class="st7" d="M55.2,17.7c-0.2,0-0.4-0.2-0.4-0.4s0.2-0.4,0.4-0.4l0,0c0.2,0,0.4,0.2,0.4,0.4S55.4,17.7,55.2,17.7z"/>
<path class="st6" d="M61.4,17.3c-0.2,0-0.4-0.2-0.4-0.4v-3.1c0-0.2,0.2-0.4,0.4-0.4s0.4,0.2,0.4,0.4v3.1
	C61.7,17.1,61.6,17.3,61.4,17.3z"/>
<path class="st6" d="M62.1,15.7h-1.5c-0.2,0-0.4-0.2-0.4-0.4s0.2-0.4,0.4-0.4h1.6c0.2,0,0.4,0.2,0.4,0.4S62.4,15.7,62.1,15.7z"/>
<path class="st9" d="M36.1,15c-0.2,0-0.4-0.2-0.4-0.4s0.2-0.4,0.4-0.4l0,0c0.2,0,0.4,0.2,0.4,0.4S36.3,15,36.1,15z"/>
</svg>
