<?xml version="1.0" encoding="utf-8"?>
<!-- Generator: Adobe Illustrator 25.4.8, SVG Export Plug-In . SVG Version: 6.00 Build 0)  -->
<svg version="1.1" id="图层_1" xmlns="http://www.w3.org/2000/svg" xmlns:xlink="http://www.w3.org/1999/xlink" x="0px" y="0px"
	 viewBox="0 0 70.9 70.9" style="enable-background:new 0 0 70.9 70.9;" xml:space="preserve">
<style type="text/css">
	.st0{fill:#FFD788;}
	.st1{fill:#FF7C48;}
	.st2{fill:#FFB24D;}
	.st3{fill:#FFCE54;}
	.st4{fill:#ED5565;}
	.st5{fill:#AC92EC;}
	.st6{fill:#A0D468;}
	.st7{fill:#FFD2A6;}
</style>
<path class="st0" d="M42.8,19.3h9.4v3.1h-9.4C42.8,22.4,42.8,19.3,42.8,19.3z"/>
<path class="st1" d="M55.4,19.3c0,1.7-1.4,3.1-3.1,3.1c-1.7,0-3.1-1.4-3.1-3.1s1.4-3.1,3.1-3.1S55.4,17.6,55.4,19.3z"/>
<path class="st2" d="M49.1,34.2v20.4H48c-0.5-0.5-1.3-0.8-2.1-0.8H22.4V18.2c0-1.1,0.9-2,2-2h27.8c-1.7,0-3.1,1.4-3.1,3.1V34.2z"/>
<path class="st0" d="M42.8,55.4c0,1.6,1.2,2.9,2.8,3.1l0,0H19.3c-1.7,0-3.1-1.4-3.1-3.1c0-1.7,1.4-3.1,3.1-3.1H46
	C44.2,52.3,42.8,53.7,42.8,55.4z"/>
<path class="st3" d="M55.4,18.6c0.4,0,0.8,0.4,0.8,0.8c0,0.4-0.4,0.8-0.8,0.8h-3.1c-0.4,0-0.8-0.4-0.8-0.8c0-0.4,0.4-0.8,0.8-0.8
	H55.4z"/>
<path class="st4" d="M38.9,12.7c-0.2,0-0.4-0.2-0.4-0.4s0.2-0.4,0.4-0.4l0,0c0.2,0,0.4,0.2,0.4,0.4S39.1,12.7,38.9,12.7z"/>
<g>
	<path class="st5" d="M53.8,44c-0.2,0-0.4-0.2-0.4-0.4s0.2-0.4,0.4-0.4l0,0c0.2,0,0.4,0.2,0.4,0.4C54.2,43.8,54,44,53.8,44z"/>
	<path class="st3" d="M56.2,55.8c-0.2,0-0.4-0.2-0.4-0.4S56,55,56.2,55l0,0c0.2,0,0.4,0.2,0.4,0.4S56.4,55.8,56.2,55.8z"/>
	<path class="st6" d="M56.2,33.1c-0.2,0-0.4-0.2-0.4-0.4v-3.1c0-0.2,0.2-0.4,0.4-0.4s0.4,0.2,0.4,0.4v3.1
		C56.5,32.9,56.4,33.1,56.2,33.1z"/>
	<path class="st6" d="M56.9,31.5h-1.5c-0.2,0-0.4-0.2-0.4-0.4s0.2-0.4,0.4-0.4H57c0.2,0,0.4,0.2,0.4,0.4
		C57.4,31.3,57.2,31.5,56.9,31.5z"/>
</g>
<g>
	<path class="st6" d="M15.4,26.8c-0.2,0-0.4-0.2-0.4-0.4s0.2-0.4,0.4-0.4l0,0c0.2,0,0.4,0.2,0.4,0.4S15.6,26.8,15.4,26.8z"/>
	<path class="st6" d="M13.8,50.3c-0.2,0-0.4-0.2-0.4-0.4s0.2-0.4,0.4-0.4l0,0c0.2,0,0.4,0.2,0.4,0.4S14.1,50.3,13.8,50.3z"/>
	<path class="st3" d="M19.3,16.6c-0.2,0-0.4-0.2-0.4-0.4v-3.1c0-0.2,0.2-0.4,0.4-0.4s0.4,0.2,0.4,0.4v3.1
		C19.7,16.4,19.5,16.6,19.3,16.6z"/>
	<path class="st3" d="M20.1,15h-1.6c-0.2,0-0.4-0.1-0.4-0.4s0.2-0.4,0.4-0.4h1.6c0.2,0,0.4,0.2,0.4,0.4S20.3,15,20.1,15z"/>
	<path class="st5" d="M17.7,39.3c-0.2,0-0.4-0.2-0.4-0.4v-3.1c0-0.2,0.2-0.4,0.4-0.4s0.4,0.2,0.4,0.4v3.1
		C18.1,39.2,18,39.3,17.7,39.3z"/>
	<path class="st5" d="M18.5,37.8H17c-0.2,0-0.4-0.2-0.4-0.4S16.8,37,17,37h1.6c0.2,0,0.4,0.2,0.4,0.4S18.7,37.8,18.5,37.8z"/>
</g>
<g transform="translate(12.54343 10.191537)">
	<path class="st7" d="M32.6,12.7H13.8c-0.2,0-0.4-0.2-0.4-0.4s0.2-0.4,0.4-0.4h18.8c0.2,0,0.4,0.2,0.4,0.4S32.9,12.7,32.6,12.7z"/>
	<path class="st7" d="M32.6,17.4H13.8c-0.2,0-0.4-0.2-0.4-0.4c0-0.2,0.2-0.4,0.4-0.4h18.8c0.2,0,0.4,0.2,0.4,0.4
		S32.9,17.4,32.6,17.4z"/>
	<path class="st7" d="M32.6,22.1H13.8c-0.2,0-0.4-0.2-0.4-0.4c0-0.2,0.2-0.4,0.4-0.4h18.8c0.2,0,0.4,0.2,0.4,0.4
		S32.9,22.1,32.6,22.1z"/>
	<path class="st7" d="M32.6,26.8H13.8c-0.2,0-0.4-0.2-0.4-0.4s0.2-0.4,0.4-0.4h18.8c0.2,0,0.4,0.2,0.4,0.4
		C33,26.6,32.9,26.8,32.6,26.8z"/>
	<path class="st7" d="M32.6,31.5H13.8c-0.2,0-0.4-0.2-0.4-0.4s0.2-0.4,0.4-0.4h18.8c0.2,0,0.4,0.2,0.4,0.4
		C33,31.3,32.9,31.5,32.6,31.5z"/>
	<path class="st7" d="M32.6,36.2H13.8c-0.2,0-0.4-0.2-0.4-0.4s0.2-0.4,0.4-0.4h18.8c0.2,0,0.4,0.2,0.4,0.4S32.9,36.2,32.6,36.2z"/>
</g>
<path class="st1" d="M49.1,55.4c0,1.7-1.4,3.1-3.1,3.1c-1.7,0-3.1-1.4-3.1-3.1s1.4-3.1,3.1-3.1S49.1,53.7,49.1,55.4z"/>
<path class="st3" d="M49.1,54.6c0.4,0,0.8,0.4,0.8,0.8c0,0.4-0.4,0.8-0.8,0.8H46c-0.4,0-0.8-0.4-0.8-0.8c0-0.4,0.4-0.8,0.8-0.8H49.1
	z"/>
</svg>
