<?xml version="1.0" encoding="utf-8"?>
<!-- Generator: Adobe Illustrator 25.4.8, SVG Export Plug-In . SVG Version: 6.00 Build 0)  -->
<svg version="1.1" id="图层_1" xmlns="http://www.w3.org/2000/svg" xmlns:xlink="http://www.w3.org/1999/xlink" x="0px" y="0px"
	 viewBox="0 0 70.9 70.9" style="enable-background:new 0 0 70.9 70.9;" xml:space="preserve">
<style type="text/css">
	.st0{fill:#FF7C48;}
	.st1{fill:#FFB24D;}
	.st2{fill:#FFEBB7;}
	.st3{fill:#FFD788;}
	.st4{fill:#A0D468;}
	.st5{fill:#AC92EC;}
	.st6{fill:#ED5565;}
</style>
<g transform="translate(12 12)">
	<path class="st0" d="M42.5,23.9c-3.2,0-5.7-2.6-5.7-5.7s2.6-5.7,5.7-5.7c3.1,0,5.7,2.6,5.7,5.7S45.7,23.9,42.5,23.9z"/>
	<path class="st1" d="M42.5,23.9h-2.8c-5.5,0-10.2-4.5-10.2-10l-5.3,10.3c2.6,3.9,6.7,6.8,11.2,7.8v13.4c0,0.8,0.6,1.4,1.4,1.4h11.5
		c0.8,0,1.4-0.6,1.4-1.4V31.1C49.7,27.2,46.5,23.9,42.5,23.9z"/>
	<path class="st2" d="M26.6-0.7v2.9c0,0.8-0.6,1.4-1.4,1.4S23.8,3,23.8,2.2v-2.9c0-0.8,0.6-1.4,1.4-1.4S26.6-1.5,26.6-0.7z"/>
	<path class="st1" d="M30.9,6.6c-0.4,0-0.7-0.1-1-0.4c-0.6-0.6-0.6-1.5,0-2l2.9-2.9c0.6-0.6,1.5-0.6,2,0s0.6,1.5,0,2l-2.9,2.9
		C31.7,6.5,31.3,6.6,30.9,6.6z"/>
	<path class="st3" d="M19.5,6.6c-0.4,0-0.7-0.1-1-0.4l-2.9-2.9c-0.6-0.6-0.6-1.5,0-2s1.5-0.6,2,0l2.9,2.9c0.6,0.6,0.6,1.5,0,2
		C20.2,6.5,19.8,6.6,19.5,6.6z"/>
	<path class="st1" d="M7.9,23.9c-3.2,0-5.7-2.6-5.7-5.7s2.6-5.7,5.7-5.7s5.7,2.6,5.7,5.7S11,23.9,7.9,23.9z"/>
	<path class="st2" d="M25.2,9.5c-2.4,0-4.3,1.9-4.3,4.3c0,5.5-4.6,10.1-10.2,10.1H7.9c-4,0-7.2,3.2-7.2,7.2v14.4
		c0,0.8,0.6,1.4,1.4,1.4h11.5c0.8,0,1.4-0.6,1.4-1.4V32.1c4-1,7.6-3.3,10.1-6.3c2.7-3.2,4.3-7.4,4.3-11.9
		C29.5,11.4,27.6,9.5,25.2,9.5z"/>
	<path class="st3" d="M29.5,13.8c0,4.5-1.6,8.7-4.3,11.9V9.5C27.6,9.5,29.5,11.4,29.5,13.8z"/>
	<path class="st3" d="M25.2,3.6v-5.7c0.8,0,1.4,0.6,1.4,1.4v2.9C26.6,3,26,3.6,25.2,3.6z"/>
</g>
<path class="st4" d="M54.1,16.5c-0.2,0-0.4-0.2-0.4-0.4c0-0.2,0.2-0.4,0.4-0.4l0,0c0.2,0,0.4,0.2,0.4,0.4
	C54.5,16.3,54.3,16.5,54.1,16.5z"/>
<path class="st4" d="M14.2,20.2c-0.2,0-0.4-0.2-0.4-0.4s0.2-0.4,0.4-0.4l0,0c0.2,0,0.4,0.2,0.4,0.4S14.5,20.2,14.2,20.2z"/>
<path class="st5" d="M7.3,29.1c-0.2,0-0.4-0.2-0.4-0.4v-3.1c0-0.2,0.2-0.4,0.4-0.4c0.2,0,0.4,0.2,0.4,0.4v3.1
	C7.7,29,7.6,29.1,7.3,29.1z"/>
<path class="st5" d="M8.1,27.6H6.6c-0.2,0-0.4-0.2-0.4-0.4s0.2-0.4,0.4-0.4h1.6c0.2,0,0.4,0.2,0.4,0.4S8.3,27.6,8.1,27.6z"/>
<path class="st6" d="M63,23.7c-0.2,0-0.4-0.2-0.4-0.4s0.2-0.4,0.4-0.4l0,0c0.2,0,0.4,0.2,0.4,0.4S63.2,23.7,63,23.7z"/>
<path class="st4" d="M60.2,22.1c-0.2,0-0.4-0.2-0.4-0.4v-3.1c0-0.2,0.2-0.4,0.4-0.4s0.4,0.2,0.4,0.4v3.1
	C60.5,21.9,60.4,22.1,60.2,22.1z"/>
<path class="st4" d="M60.9,20.5h-1.5c-0.2,0-0.4-0.2-0.4-0.4s0.2-0.4,0.4-0.4H61c0.2,0,0.4,0.2,0.4,0.4S61.2,20.5,60.9,20.5z"/>
</svg>
