<svg width="18" height="16" viewBox="0 0 18 16" fill="none" xmlns="http://www.w3.org/2000/svg">
<path d="M8.99608 15.4664C8.92454 15.4664 8.85319 15.4468 8.79022 15.4076C8.45574 15.1993 0.594145 10.252 0.0319388 5.35221C-0.133398 3.91142 0.343757 2.61789 1.45007 1.50741C2.21186 0.648806 3.29609 0.176025 4.50439 0.176025C6.06216 0.176025 7.67893 0.967279 8.99606 2.36145C10.3132 0.967279 11.9299 0.176025 13.4875 0.176025C14.6957 0.176025 15.7799 0.648806 16.5415 1.50741C17.6552 2.62533 18.135 3.9259 17.9674 5.37314C17.3995 10.2754 9.53581 15.2006 9.20136 15.408C9.13839 15.447 9.06724 15.4664 8.99608 15.4664Z" fill="#EB4742"/>
</svg>
