<svg width="18" height="16" viewBox="0 0 18 16" fill="none" xmlns="http://www.w3.org/2000/svg">
<path d="M0.52868 5.29411L0.528679 5.29411C0.382243 4.01803 0.795412 2.87188 1.80429 1.85919L1.81449 1.84896L1.82409 1.83814C2.4855 1.09267 3.43061 0.674927 4.50439 0.674927C5.89268 0.674927 7.38548 1.38365 8.6326 2.70372L8.99606 3.08843L9.35951 2.70372C10.6066 1.38364 12.0994 0.674927 13.4875 0.674927C14.5611 0.674927 15.5062 1.09267 16.1674 1.8381L16.177 1.84893L16.1873 1.8592C17.2037 2.87948 17.6192 4.03254 17.4707 5.31452C17.3423 6.42368 16.7947 7.57039 15.9979 8.68886C15.2041 9.80325 14.1858 10.8577 13.1625 11.7783C11.2567 13.4928 9.37321 14.7077 8.99622 14.9454C8.6193 14.7067 6.73627 13.4864 4.83151 11.767C3.8087 10.8437 2.79112 9.78666 1.99818 8.67049C1.20231 7.55021 0.655872 6.40263 0.52868 5.29411Z" stroke="#7A7A7A"/>
</svg>
