<svg width="13" height="12" viewBox="0 0 13 12" fill="none" xmlns="http://www.w3.org/2000/svg">
<path fill-rule="evenodd" clip-rule="evenodd" d="M9.13142 0.743606C9.52194 0.353081 10.1551 0.353081 10.5456 0.743605L11.9117 2.10972C12.3023 2.50025 12.3023 3.13341 11.9117 3.52394L5.18566 10.25L2.30828 11.6887C1.44873 12.1185 0.536862 11.2066 0.96664 10.3471L2.40533 7.46969L9.13142 0.743606ZM8.49386 2.44183L10.2135 4.1615L11.2046 3.17038C11.3999 2.97512 11.3999 2.65854 11.2046 2.46328L10.1921 1.45071C9.99682 1.25545 9.68023 1.25545 9.48497 1.45071L8.49386 2.44183ZM9.6832 4.69183L7.96353 2.97216L3.24386 7.69183L4.96353 9.4115L9.6832 4.69183Z" fill="black"/>
</svg>
